<?xml version="1.0" encoding="UTF-8" standalone="no"?>
<!DOCTYPE svg PUBLIC "-//W3C//DTD SVG 1.1//EN" "http://www.w3.org/Graphics/SVG/1.1/DTD/svg11.dtd">
<svg width="100%" height="100%" viewBox="0 0 1280 720" version="1.1" xmlns="http://www.w3.org/2000/svg" xmlns:xlink="http://www.w3.org/1999/xlink" xml:space="preserve" xmlns:serif="http://www.serif.com/" style="fill-rule:evenodd;clip-rule:evenodd;stroke-linejoin:round;stroke-miterlimit:2;">
    <g transform="matrix(3.01814,-0.83685,-0.965805,-2.61516,423.928,117.116)">
        <path d="M-0.021,0.007C0.009,0.055 0.044,0.098 0.074,0.147C0.041,0.128 0.011,0.106 -0.021,0.086C-0.031,0.051 -0.029,0.026 -0.041,-0.011C-0.035,-0.004 -0.027,0 -0.021,0.007" style="fill:rgb(117,76,36);fill-rule:nonzero;"/>
    </g>
    <g transform="matrix(3.1689,0,0,2.74579,532.787,366.845)">
        <path d="M0,-80.234C-1.095,-78.957 -2.338,-79.234 -3.506,-79.229C-14.195,-79.185 -24.885,-79.13 -35.573,-79.221C-37.663,-79.238 -38.461,-78.629 -38.889,-76.54C-40.527,-68.517 -41.245,-60.415 -41.504,-52.253C-41.555,-50.645 -41.508,-49.006 -42.288,-47.521C-43.049,-58.116 -41.481,-68.526 -39.617,-79.033L-54.389,-79.033C-52.52,-76.039 -50.715,-73.442 -49.212,-70.68C-46.58,-65.845 -46.031,-60.776 -49.129,-55.997C-51.925,-51.686 -54.993,-47.514 -59.403,-44.59C-61.751,-43.033 -62.964,-40.846 -62.728,-37.548C-61.011,-37.548 -59.352,-37.563 -57.693,-37.545C-54.225,-37.509 -50.756,-37.418 -47.288,-37.422C-43.971,-37.426 -40.429,-36.789 -37.385,-37.727C-30.477,-39.855 -23.872,-37.649 -17.143,-37.332C-17.082,-37.329 -17.034,-37.026 -16.985,-36.861C-18.061,-35.854 -19.706,-37.048 -20.988,-35.831C-18.195,-33.848 -16.504,-31.108 -15.018,-28.205C-13.796,-29.355 -14.366,-31.86 -12.257,-31.211C-10.394,-30.638 -11.045,-28.686 -11.216,-27.276C-11.475,-25.14 -11.707,-23.019 -11.596,-20.954C-9.89,-19.804 -6.862,-19.381 -7.986,-16.715C-9.111,-14.048 -10.401,-17.558 -11.94,-17.245C-12.843,-15.757 -12.71,-13.914 -13.183,-12.242C-13.509,-11.087 -13.819,-9.889 -15.292,-10.193C-16.705,-10.485 -16.729,-11.757 -16.571,-12.926C-16.334,-14.67 -16.042,-16.407 -15.76,-18.239C-17.862,-18.976 -19.814,-19.591 -21.707,-20.352C-22.665,-20.736 -23.663,-21.385 -23.271,-22.661C-22.862,-23.993 -21.748,-23.715 -20.691,-23.559C-19.247,-23.345 -17.827,-22.655 -16.337,-23.174C-15.103,-28.996 -20.683,-35.331 -24.601,-36.12C-29.158,-37.037 -34.077,-37.344 -38.731,-35.417C-40.476,-34.695 -40.871,-33.757 -40.604,-31.979C-39.702,-25.959 -38.718,-19.952 -38.534,-13.836C-38.458,-11.313 -37.696,-8.81 -37.174,-5.899C-35.785,-7.616 -34.773,-8.945 -33.68,-10.201C-32.001,-12.13 -30.365,-12.169 -28.421,-10.338C-26.811,-8.821 -25.859,-6.887 -24.504,-5.221C-20.73,-0.581 -17.03,4.119 -13.239,8.872C-9.905,8.62 -9.896,8.614 -7.572,11.683C-7.214,12.153 -6.851,12.568 -6.232,12.569C-2.255,12.58 1.722,12.575 5.807,12.575C5.409,9.07 4.596,6.015 3.725,2.947C1.886,-3.528 -0.567,-9.841 -1.352,-16.607C-1.88,-21.161 -2.551,-25.709 -3.402,-30.215C-5.373,-40.651 -6.056,-50.98 -2.183,-61.2C-1.296,-63.541 -0.77,-66.086 -0.508,-68.582C0.134,-74.726 2.069,-80.46 4.468,-86.083C5.273,-87.97 6.064,-89.862 6.855,-91.738C5.688,-92.814 4.343,-92.64 3.059,-92.626C-8.471,-92.499 -20,-92.344 -31.53,-92.228C-32.709,-92.216 -33.767,-92.128 -34.374,-90.95C-35.255,-87.501 -37.375,-84.424 -37.681,-80.234L0,-80.234Z" style="fill:rgb(201,160,87);fill-rule:nonzero;"/>
    </g>
    <g transform="matrix(3.1689,0,0,2.74579,145.549,113.436)">
        <path d="M0,54.694C1.178,54.685 2.438,55.043 3.708,54.132C3.663,53.292 3.537,52.365 3.577,51.446C3.757,47.26 2.847,42.93 4.671,38.946C7.442,32.893 10.497,26.945 14.628,21.707C16.628,19.17 16.938,16.33 17.959,12.887L1.852,12.887C2.699,12.215 2.833,12.014 2.971,12.013C6.25,11.968 9.553,11.695 12.804,11.985C16.514,12.316 19.22,11.621 19.934,7.47C19.943,7.416 20.143,7.394 20.124,7.4C20.281,8.865 18.853,10.094 19.531,11.665C24.737,12.331 28.981,12.132 33.416,10.535C40.825,7.865 48.407,6.519 56.286,6.799C57.823,6.854 59.37,6.903 60.525,7.965C64.48,11.6 69.178,12.403 74.313,11.925C76.171,11.753 78.071,11.761 79.932,11.925C82.141,12.121 83.323,11.487 83.876,9.136C84.552,6.261 85.823,3.553 87.801,1.265C87.757,-0.349 86.453,0.076 85.581,0.109C81.838,0.247 78.097,0.696 74.358,0.663C44.639,0.399 14.952,2.048 -14.76,2.108C-15.867,2.11 -17.106,1.849 -17.545,3.333C-18.145,5.357 -19.171,7.27 -19.361,9.736C-16.23,9.351 -15.792,11.432 -15.634,13.619C-15.464,15.952 -15.36,18.3 -15.76,20.63C-16.126,22.765 -16.505,24.926 -18.208,26.474C-19.865,27.98 -21.847,27.132 -23.928,26.797C-23.725,35.29 -24.338,43.524 -23.282,51.739C-22.995,53.977 -22.126,54.874 -19.684,54.799C-13.128,54.601 -6.562,54.739 0,54.694" style="fill:rgb(211,173,98);fill-rule:nonzero;"/>
    </g>
    <g transform="matrix(3.1689,0,0,2.74579,555.973,471.861)">
        <path d="M0,28.442C1.676,28.93 3.291,29.629 5.082,30.29C5.701,24.213 4.75,18.349 4.686,12.47C4.552,0.302 1.99,-11.516 -0.904,-23.272C-1.18,-24.389 -1.687,-24.807 -2.83,-24.798C-10.515,-24.742 -18.201,-24.74 -25.887,-24.706C-27.653,-24.699 -29.35,-23.495 -31.131,-24.194C-33.605,-25.163 -36.097,-24.69 -38.743,-24.677C-35.886,-7.778 -33.712,8.889 -34.837,26.095C-23.616,26.314 -12.515,25.898 -1.439,26.783C-1.653,27.154 -1.878,27.365 -2.106,27.366C-12.045,27.44 -21.985,27.597 -31.922,27.485C-34.565,27.455 -35.422,28.254 -35.735,30.839C-36.545,37.527 -37.579,44.198 -40.343,50.447C-40.741,51.347 -41.231,52.325 -40.605,53.308C-40.456,53.377 -40.371,53.449 -40.285,53.449C-27.532,53.496 -14.778,53.527 -2.025,53.599C-0.903,53.605 -0.482,52.995 0.131,52.198C2.232,49.472 1.904,46.077 3.292,43.153C1.113,42.597 -1.29,44.023 -2.413,41.683C-3.294,39.845 -1.731,38.613 -0.549,37.536C-1.392,35.165 -2.758,33.17 -2.804,30.73C-2.841,28.743 -1.911,27.885 0,28.442" style="fill:rgb(211,173,98);fill-rule:nonzero;"/>
    </g>
    <g transform="matrix(3.1689,0,0,2.74579,250.056,408.657)">
        <path d="M0,47.441C1.386,48.644 2.648,49.251 4.463,49.237C13.186,49.17 21.91,49.207 30.633,49.207L30.633,49.167C38.137,49.167 45.641,49.166 53.145,49.167C60.548,49.167 60.412,49.164 60.605,41.793C60.829,33.22 59.616,24.779 58.765,16.296C58.232,10.98 57.738,5.67 56.542,0.445C56.208,-1.014 55.714,-1.81 53.989,-1.791C45.736,-1.704 37.481,-1.732 29.227,-1.752C28.091,-1.755 27.317,-1.387 26.658,-0.419C24.47,2.794 21.261,4.53 17.534,5.124C10.204,6.293 3.922,9.698 -2.13,13.749C-3.869,14.913 -4.671,16.172 -4.527,18.348C-4.145,24.148 -3.615,29.996 -4.349,35.768C-4.963,40.602 -3.642,44.277 0,47.441" style="fill:rgb(188,144,66);fill-rule:nonzero;"/>
    </g>
    <g transform="matrix(3.1689,0,0,2.74579,200.414,148.312)">
        <path d="M0,42.015C8.153,41.982 16.306,41.988 24.458,41.983C29.601,41.98 34.743,41.983 40.179,41.983C40.782,38.82 41.333,35.845 44.049,34.162C48.158,31.618 50.836,27.751 53.66,24.039C57.096,19.525 57.002,14.649 54.439,9.786C53.219,7.472 51.654,5.342 50.321,3.084C49.168,1.133 47.663,0.292 45.279,0.333C36.847,0.477 28.395,0.719 19.983,0.282C14.166,-0.021 9.348,1.764 4.785,4.956C3.71,5.709 2.647,6.481 1.543,7.188C0.2,8.049 -0.391,9.238 -0.797,10.807C-3.277,20.394 -2.576,30.16 -2.699,39.887C-2.727,42.036 -1.521,42.021 0,42.015" style="fill:rgb(211,173,98);fill-rule:nonzero;"/>
    </g>
    <g transform="matrix(3.1689,0,0,2.74579,231.082,403.562)">
        <path d="M0,51.064C0.497,47.885 0.284,45.532 -1.697,43.127C-7.94,35.547 -8.591,26.649 -3.077,19.906C-0.652,16.941 0.016,14.256 -0.836,10.751C-1.477,8.118 -1.91,5.418 -2.219,2.723C-2.443,0.773 -3.168,0.085 -5.232,0.119C-14.515,0.269 -23.802,0.216 -33.086,0.284C-34.464,0.293 -35.89,0 -37.746,0.818C-34.118,17.359 -34.457,34.284 -34.667,51.064L0,51.064Z" style="fill:rgb(188,144,66);fill-rule:nonzero;"/>
    </g>
    <g transform="matrix(3.1689,0,0,2.74579,437.331,617.891)">
        <path d="M0,-25.506L-55.863,-25.506C-52.197,-21.458 -48.908,-18.066 -44.928,-15.35C-40.97,-12.649 -36.342,-11.194 -32.302,-8.6C-32.797,-8.29 -33.156,-8.269 -33.482,-8.362C-40.726,-10.45 -47.187,-13.902 -52.481,-19.359C-54.178,-21.107 -55.848,-22.882 -57.526,-24.649C-58.983,-26.182 -60.877,-25.802 -62.562,-25.525C-64.26,-25.243 -63.532,-23.527 -63.677,-22.447C-64.26,-18.095 -64.62,-13.711 -65.246,-9.365C-65.705,-6.183 -66.45,-3.041 -67.117,0.377C-63.608,0.377 -60.431,0.378 -57.253,0.377C-40.941,0.375 -24.629,0.377 -8.317,0.362C-7.155,0.361 -5.928,0.676 -5.324,-0.961C-2.692,-8.096 -0.805,-15.415 0.35,-22.925C0.471,-23.716 0.728,-24.586 0,-25.506" style="fill:rgb(188,144,66);fill-rule:nonzero;"/>
    </g>
    <g transform="matrix(3.1689,0,0,2.74579,212.647,378.852)">
        <path d="M0,-32.38C0.912,-32.169 1.833,-31.98 2.76,-31.857C9.636,-30.948 16.54,-30.397 23.472,-30.13C28.612,-29.933 33.407,-28.606 37.81,-25.784C41.78,-23.24 43.575,-19.844 43.076,-15.14C42.825,-12.771 42.267,-10.541 41.123,-8.453C40.725,-7.727 40.051,-6.995 40.438,-6.115C42.501,-1.416 42.693,3.266 40.027,8.277C49.06,8.277 57.654,8.293 66.249,8.256C67.232,8.252 67.559,7.648 66.928,6.696C64.992,6.533 63.267,8.485 61.274,7.476C58.683,6.165 60.363,3.9 60.325,1.925C58.338,1.737 56.706,2.428 55.307,3.538C53.897,4.657 52.662,5.996 51.262,7.323C50.084,6.042 50.84,5.134 51.552,4.301C52.974,2.638 54.732,1.423 56.742,0.544C59.71,-0.756 63.088,-6.872 62.492,-10.089C61.551,-15.161 61.139,-20.283 60.678,-25.41C60.304,-29.57 59.606,-33.701 59.013,-38.134C57.065,-37.237 55.459,-36.505 53.859,-35.76C48.001,-33.033 41.356,-34.336 37.314,-39.319C36.241,-40.642 35.218,-40.865 33.764,-40.859C24.018,-40.817 14.271,-40.818 4.525,-40.807C1.074,-40.803 -2.377,-40.807 -6.041,-40.807C-6.068,-34.359 -5.547,-33.661 0,-32.38" style="fill:rgb(211,173,98);fill-rule:nonzero;"/>
    </g>
    <g transform="matrix(3.1689,0,0,2.74579,221.572,265.979)">
        <path d="M0,49.052C-0.445,44.917 -0.739,41.07 -2.461,36.541C-6.536,41.122 -10.496,44.931 -16.218,45.875C-22.354,46.887 -27.219,43.847 -32.214,40.91C-32.219,39.364 -31.37,38.093 -30.595,36.836C-27.633,32.036 -23.8,27.918 -20.137,23.674C-17.193,20.264 -13.678,20.361 -10.56,23.702C-8.722,25.672 -7.231,27.98 -4.7,29.474C-7.188,23.29 -6.958,16.575 -8.866,10.313C-9.264,9.004 -9.877,8.29 -11.102,7.745C-14.1,6.412 -17.212,5.062 -18.971,2.116C-19.831,0.677 -20.741,0.251 -22.299,0.262C-29.419,0.315 -36.541,0.259 -43.663,0.274C-44.453,0.275 -45.339,0 -46.235,0.934C-43.756,8.64 -41.879,16.627 -40.083,24.651C-38.271,32.746 -35.783,40.693 -34.795,49.052L0,49.052Z" style="fill:rgb(211,173,98);fill-rule:nonzero;"/>
    </g>
    <g transform="matrix(3.1689,0,0,2.74579,217.564,324.799)">
        <path d="M0,15.678C1.425,18.944 2.091,22.515 2.529,26.136C2.7,27.551 3.543,27.918 4.867,27.917C14.716,27.907 24.565,27.925 34.414,27.995C35.921,28.006 36.79,27.444 37.525,26.136C39.601,22.442 39.211,18.799 37.65,14.845C30.577,20.746 28.799,21.368 21.782,21.352C18.032,21.343 15.045,20.073 13.583,16.598C12.168,13.234 13.082,10.045 15.239,7.106C20.173,0.379 31.037,2.445 35.433,8.017C36.171,8.952 36.838,9.946 37.561,10.944C41.771,5.578 40.75,-1.242 35.331,-4.705C32.537,-6.491 29.583,-7.944 26.245,-8.261C20.464,-8.812 14.673,-9.27 8.881,-9.7C3.874,-10.071 -1.091,-10.696 -6.467,-12.328C-4.576,-6.507 -4.567,-0.933 -2.971,4.374C-1.85,8.103 -0.819,11.66 3.896,12.079C3.949,12.083 3.989,12.233 4.167,12.551C3.443,14.239 1.134,14.073 0,15.678" style="fill:rgb(211,173,98);fill-rule:nonzero;"/>
    </g>
    <g transform="matrix(3.1689,0,0,2.74579,120.456,619.125)">
        <path d="M0,-26.008C-1.967,-17.529 -2.781,-8.655 -6.166,-0.257C-5.331,-0.129 -4.971,-0.027 -4.611,-0.027C6.633,-0.032 17.877,-0.099 29.121,-0.016C31.202,0 31.56,-1.183 31.98,-2.702C34.064,-10.22 34.044,-17.999 35.127,-26.008L0,-26.008Z" style="fill:rgb(188,144,66);fill-rule:nonzero;"/>
    </g>
    <g transform="matrix(3.1689,0,0,2.74579,287.237,377.835)">
        <path d="M0,-14.956C-4.208,-14.342 -7.933,-9.557 -7.633,-5.15C-7.384,-1.495 -4.375,0.623 0.249,0.616C5.604,0.778 9.93,-0.776 13.349,-4.638C14.344,-5.762 14.582,-6.671 13.763,-8.093C11.054,-12.792 5.327,-15.734 0,-14.956" style="fill:rgb(211,173,98);fill-rule:nonzero;"/>
    </g>
    <g transform="matrix(3.1689,0,0,2.74579,238.017,405.06)">
        <path d="M0,14.087C6.879,9.176 14.351,5.736 22.785,4.429C25.396,4.024 27.519,2.441 29.26,-0.23L-3.356,-0.23C-2.537,4.75 -1.756,9.494 -0.962,14.317C-0.503,14.213 -0.196,14.227 0,14.087" style="fill:rgb(211,173,98);fill-rule:nonzero;"/>
    </g>
    <g transform="matrix(3.1689,0,0,2.74579,461.281,341.489)">
        <path d="M0,20.948C1.509,21.521 2.639,20.387 3.926,20.017C6.005,19.421 6.423,18.51 4.847,16.666C1.505,12.751 -1.69,8.705 -4.545,4.41C-5.673,2.713 -6.416,0.716 -8.731,-0.573C-12.915,3.245 -14.303,8.728 -17.795,13.202C-11.525,13.925 -17.335,16.911 -15.999,19.147C-9.903,17.867 -3.919,11.896 3.336,16.741C2.075,18.36 -0.396,18.511 0,20.948" style="fill:rgb(211,173,98);fill-rule:nonzero;"/>
    </g>
    <g transform="matrix(3.1689,0,0,2.74579,172.853,238.229)">
        <path d="M0,-11.201C-3.902,-5.558 -3.845,0.762 -3.728,7.148C-3.708,8.238 -3.442,9.268 -2.025,9.23C0.092,9.171 2.238,9.521 4.494,8.94C5.003,-1.005 3.568,-10.971 6.112,-20.722C3.47,-17.779 2.105,-14.244 0,-11.201" style="fill:rgb(211,173,98);fill-rule:nonzero;"/>
    </g>
    <g transform="matrix(3.1689,0,0,2.74579,126.805,375.813)">
        <path d="M0,-0.455C8.02,5.467 15.681,5.542 21.17,-0.84C15.729,-0.983 12.408,-5.997 6.315,-4.626C3.153,-3.914 1.347,-3.037 0,-0.455" style="fill:rgb(211,173,98);fill-rule:nonzero;"/>
    </g>
    <g transform="matrix(3.1689,0,0,2.74579,231.337,520.17)">
        <path d="M0,-23.1C-6.458,-18.285 -6.458,-7.336 0.155,0C0.239,-8.038 0.407,-15.439 0,-23.1" style="fill:rgb(188,144,66);fill-rule:nonzero;"/>
    </g>
    <g transform="matrix(-0.582986,-2.69892,-3.11482,0.505145,293.629,125.908)">
        <path d="M-5.036,-7.615C-4.547,-3.631 -3.941,0.34 -3.934,4.359C-3.93,6.816 -4.091,9.289 -5.036,12.154L-10.096,-14.882C-7.494,-12.601 -5.428,-10.814 -5.036,-7.615" style="fill:rgb(211,173,98);fill-rule:nonzero;"/>
    </g>
    <g transform="matrix(3.1689,0,0,2.74579,400.326,286.799)">
        <path d="M0,-7.142L-20.891,-7.142C-14.076,0 -7.829,-1.452 0,-7.142" style="fill:rgb(211,173,98);fill-rule:nonzero;"/>
    </g>
    <g transform="matrix(3.1689,0,0,2.74579,214.504,340.339)">
        <path d="M0,7.157C-5.249,5.314 -7.919,0.555 -11.843,-2.868C-12.76,-1.432 -12.221,-0.41 -11.788,0.588C-10.793,2.883 -9.3,5.078 -8.873,7.469C-8.485,9.64 -7.115,10.025 -5.854,9.716C-3.937,9.245 -1.801,8.944 0,7.157" style="fill:rgb(211,173,98);fill-rule:nonzero;"/>
    </g>
    <g transform="matrix(3.1689,0,0,2.74579,446.204,389.497)">
        <path d="M0,4.41C3.545,4.762 2.165,1.246 3.864,-0.22C0.032,-1.178 -2.657,0.587 -5.734,2.153C-4.619,5.588 -1.965,4.216 0,4.41" style="fill:rgb(211,173,98);fill-rule:nonzero;"/>
    </g>
    <g transform="matrix(3.1689,0,0,2.74579,164.736,277.789)">
        <path d="M0,-3.384C2.022,-0.604 4.832,0.841 8.116,2.154C7.66,-4.33 5.789,-5.538 0,-3.384" style="fill:rgb(211,173,98);fill-rule:nonzero;"/>
    </g>
    <g transform="matrix(-0.550826,-2.70399,-3.12066,0.477279,160.473,341.65)">
        <path d="M-2.658,-2.162C-1.277,-1.989 0.119,-1.932 2.094,-1.779C0.423,0.262 -1.011,2.015 -2.658,4.028C-4.285,1.636 -5.691,-0.433 -7.416,-2.971C-5.38,-2.618 -4.025,-2.332 -2.658,-2.162" style="fill:rgb(211,173,98);fill-rule:nonzero;"/>
    </g>
    <g transform="matrix(3.1689,0,0,2.74579,202.613,147.982)">
        <path d="M0,5.975C2.624,4.293 5.146,2.676 7.909,0.905C-0.233,0 0.135,0.034 0,5.975" style="fill:rgb(211,173,98);fill-rule:nonzero;"/>
    </g>
    <g transform="matrix(3.1689,0,0,2.74579,484.781,396.237)">
        <path d="M0,1.553C1.741,1.906 3.461,2.135 5.142,1.233C3.25,-0.582 1.67,0.866 0,1.553" style="fill:rgb(211,173,98);fill-rule:nonzero;"/>
    </g>
    <g transform="matrix(1,0,0,1,10,5)">
        <g transform="matrix(3.1689,0,0,2.74579,485.889,319.215)">
            <path d="M0,24.657C-1.892,22.844 -3.472,24.291 -5.142,24.977C-3.4,25.331 -1.681,25.559 0,24.657M-86.275,-66.083C-94.418,-66.989 -94.05,-66.955 -94.185,-61.013C-91.561,-62.696 -89.039,-64.312 -86.275,-66.083M-106.094,1.174C-107.814,3.174 -109.292,4.891 -110.987,6.863C-108.35,8.049 -106.067,9.074 -103.268,10.332C-103.969,8.386 -104.486,7.104 -104.892,5.787C-105.301,4.456 -105.6,3.092 -106.094,1.174M-98.022,-17.56C-98.478,-24.044 -100.349,-25.251 -106.137,-23.097C-104.115,-20.317 -101.305,-18.872 -98.022,-17.56M-23.05,23.123C-21.935,26.558 -19.281,25.186 -17.315,25.381C-13.77,25.731 -15.151,22.216 -13.451,20.751C-17.284,19.792 -19.973,21.557 -23.05,23.123M-90.432,10.224C-95.681,8.382 -98.352,3.623 -102.276,0.199C-103.192,1.636 -102.653,2.657 -102.221,3.655C-101.226,5.95 -99.733,8.145 -99.306,10.535C-98.917,12.708 -97.547,13.092 -96.286,12.782C-94.369,12.312 -92.233,12.011 -90.432,10.224M-31.793,-23.573L-52.684,-23.573C-45.87,-16.432 -39.622,-17.883 -31.793,-23.573M-48.978,-67.841C-51.699,-69.979 -53.834,-71.681 -57.052,-71.478C-61.058,-71.226 -65.073,-71.092 -69.023,-70.359C-71.44,-69.91 -73.841,-69.297 -76.484,-67.841L-48.978,-67.841ZM-84.965,68.56C-84.881,60.522 -84.714,53.122 -85.121,45.461C-91.579,50.276 -91.578,61.224 -84.965,68.56M-118.107,15.532C-110.088,21.453 -102.426,21.529 -96.937,15.147C-102.377,15.004 -105.699,9.99 -111.792,11.361C-114.955,12.073 -116.761,12.95 -118.107,15.532M-97.464,-54.843C-100.106,-51.901 -101.471,-48.365 -103.576,-45.322C-107.479,-39.68 -107.42,-33.359 -107.304,-26.973C-107.284,-25.882 -107.018,-24.853 -105.601,-24.892C-103.483,-24.949 -101.338,-24.6 -99.083,-25.182C-98.573,-35.125 -100.007,-45.091 -97.464,-54.843M-21.289,2.913C-25.473,6.731 -26.861,12.215 -30.353,16.688C-24.083,17.411 -29.893,20.397 -28.557,22.633C-22.461,21.352 -16.477,15.383 -9.222,20.226C-10.482,21.846 -12.955,21.998 -12.558,24.434C-11.049,25.007 -9.918,23.873 -8.632,23.504C-6.553,22.907 -6.134,21.997 -7.71,20.151C-11.053,16.237 -14.248,12.191 -17.103,7.895C-18.231,6.199 -18.974,4.202 -21.289,2.913M-53.752,26.408L-86.368,26.408C-85.549,31.387 -84.768,36.133 -83.975,40.955C-83.516,40.851 -83.209,40.865 -83.012,40.724C-76.133,35.814 -68.662,32.375 -60.227,31.066C-57.616,30.662 -55.494,29.079 -53.752,26.408M-67.232,17.339C-61.875,17.502 -57.551,15.947 -54.132,12.086C-53.136,10.961 -52.898,10.052 -53.717,8.631C-56.427,3.931 -62.153,0.989 -67.48,1.766C-71.688,2.382 -75.413,7.167 -75.113,11.572C-74.864,15.228 -71.856,17.346 -67.232,17.339M-84.983,78.592L-120.111,78.592C-122.078,87.071 -122.892,95.943 -126.276,104.343C-125.441,104.47 -125.082,104.573 -124.722,104.573C-113.478,104.567 -102.233,104.501 -90.99,104.584C-88.908,104.598 -88.551,103.417 -88.13,101.897C-86.046,94.379 -86.066,86.599 -84.983,78.592M-51.817,12.252C-58.89,18.153 -60.667,18.775 -67.685,18.76C-71.435,18.751 -74.422,17.48 -75.883,14.006C-77.298,10.641 -76.385,7.453 -74.228,4.512C-69.293,-2.213 -58.43,-0.149 -54.034,5.424C-53.295,6.36 -52.629,7.352 -51.906,8.351C-47.696,2.986 -48.716,-3.834 -54.135,-7.298C-56.93,-9.083 -59.883,-10.536 -63.221,-10.855C-69.003,-11.405 -74.794,-11.864 -80.586,-12.292C-85.593,-12.664 -90.558,-13.288 -95.934,-14.921C-94.043,-9.099 -94.034,-3.527 -92.438,1.782C-91.316,5.511 -90.285,9.067 -85.57,9.486C-85.518,9.491 -85.478,9.64 -85.299,9.959C-86.023,11.646 -88.332,11.479 -89.466,13.086C-88.041,16.35 -87.375,19.922 -86.938,23.544C-86.767,24.959 -85.923,25.326 -84.6,25.324C-74.75,25.315 -64.901,25.333 -55.053,25.403C-53.545,25.414 -52.676,24.851 -51.941,23.543C-49.865,19.848 -50.255,16.206 -51.817,12.252M-92.901,5.459C-95.391,-0.725 -95.16,-7.439 -97.068,-13.702C-97.466,-15.01 -98.08,-15.725 -99.303,-16.269C-102.301,-17.603 -105.415,-18.952 -107.173,-21.899C-108.032,-23.337 -108.943,-23.764 -110.5,-23.752C-117.622,-23.7 -124.743,-23.755 -131.864,-23.741C-132.655,-23.739 -133.541,-24.014 -134.437,-23.08C-131.958,-15.375 -130.081,-7.387 -128.285,0.636C-126.473,8.732 -123.985,16.678 -122.997,25.037L-88.202,25.037C-88.646,20.903 -88.941,17.055 -90.663,12.526C-94.738,17.108 -98.698,20.917 -104.42,21.86C-110.556,22.872 -115.421,19.832 -120.416,16.896C-120.421,15.348 -119.572,14.078 -118.797,12.822C-115.835,8.022 -112.002,3.904 -108.338,-0.341C-105.395,-3.751 -101.88,-3.654 -98.762,-0.312C-96.924,1.658 -95.433,3.966 -92.901,5.459M-97.059,-23.713C-97.086,-17.265 -96.566,-16.569 -91.019,-15.286C-90.106,-15.076 -89.186,-14.886 -88.259,-14.764C-81.383,-13.855 -74.479,-13.304 -67.546,-13.037C-62.406,-12.839 -57.611,-11.512 -53.208,-8.691C-49.239,-6.148 -47.443,-2.75 -47.942,1.954C-48.193,4.322 -48.752,6.553 -49.896,8.64C-50.293,9.367 -50.967,10.097 -50.581,10.978C-48.517,15.678 -48.325,20.36 -50.991,25.371C-41.959,25.371 -33.364,25.386 -24.77,25.349C-23.786,25.344 -23.46,24.742 -24.091,23.79C-26.027,23.627 -27.751,25.578 -29.744,24.57C-32.335,23.259 -30.655,20.994 -30.693,19.017C-32.68,18.831 -34.313,19.52 -35.711,20.631C-37.121,21.75 -38.356,23.09 -39.757,24.417C-40.934,23.136 -40.179,22.226 -39.466,21.394C-38.044,19.731 -36.286,18.516 -34.277,17.636C-31.308,16.337 -27.93,10.221 -28.526,7.005C-29.468,1.932 -29.879,-3.19 -30.34,-8.317C-30.714,-12.477 -31.412,-16.608 -32.005,-21.04C-33.953,-20.144 -35.559,-19.411 -37.16,-18.666C-43.017,-15.94 -49.663,-17.242 -53.705,-22.226C-54.777,-23.549 -55.801,-23.772 -57.254,-23.766C-67,-23.723 -76.747,-23.725 -86.493,-23.714C-89.944,-23.71 -93.395,-23.713 -97.059,-23.713M-75.979,78.644C-72.313,82.692 -69.023,86.084 -65.044,88.8C-61.085,91.501 -56.457,92.956 -52.417,95.551C-52.913,95.86 -53.272,95.882 -53.597,95.788C-60.842,93.7 -67.302,90.249 -72.596,84.792C-74.293,83.043 -75.963,81.268 -77.642,79.502C-79.098,77.969 -80.993,78.347 -82.677,78.626C-84.375,78.906 -83.647,80.623 -83.792,81.703C-84.376,86.055 -84.735,90.438 -85.362,94.784C-85.82,97.968 -86.565,101.109 -87.233,104.527L-77.368,104.527C-61.056,104.525 -44.745,104.526 -28.433,104.512C-27.27,104.511 -26.043,104.826 -25.439,103.188C-22.808,96.053 -20.921,88.735 -19.766,81.225C-19.644,80.434 -19.388,79.564 -20.116,78.644L-75.979,78.644ZM-85.201,77.157C-84.705,73.977 -84.917,71.625 -86.898,69.22C-93.141,61.639 -93.792,52.741 -88.277,45.998C-85.853,43.034 -85.185,40.349 -86.037,36.845C-86.677,34.21 -87.111,31.511 -87.42,28.816C-87.644,26.866 -88.369,26.178 -90.433,26.211C-99.716,26.362 -109.002,26.309 -118.288,26.377C-119.665,26.386 -121.091,26.093 -122.947,26.911C-119.319,43.451 -119.658,60.376 -119.869,77.157L-85.201,77.157ZM-54.7,-24.886C-54.097,-28.048 -53.545,-31.023 -50.83,-32.705C-46.72,-35.251 -44.043,-39.116 -41.218,-42.828C-37.783,-47.344 -37.876,-52.219 -40.439,-57.081C-41.66,-59.396 -43.225,-61.526 -44.558,-63.784C-45.71,-65.735 -47.216,-66.576 -49.6,-66.535C-58.031,-66.391 -66.484,-66.149 -74.895,-66.587C-80.713,-66.889 -85.531,-65.104 -90.094,-61.911C-91.168,-61.159 -92.231,-60.387 -93.335,-59.68C-94.679,-58.819 -95.27,-57.63 -95.675,-56.061C-98.156,-46.474 -97.455,-36.708 -97.578,-26.981C-97.605,-24.833 -96.399,-24.847 -94.878,-24.854C-86.726,-24.886 -78.573,-24.88 -70.42,-24.885C-65.278,-24.888 -60.135,-24.886 -54.7,-24.886M-48.58,77.154L-48.58,77.114L-26.069,77.114C-18.665,77.115 -18.801,77.111 -18.608,69.74C-18.384,61.168 -19.597,52.727 -20.448,44.245C-20.981,38.928 -21.475,33.618 -22.671,28.393C-23.005,26.933 -23.499,26.138 -25.224,26.157C-33.477,26.245 -41.732,26.217 -49.986,26.196C-51.122,26.193 -51.896,26.56 -52.555,27.529C-54.743,30.741 -57.952,32.477 -61.679,33.072C-69.009,34.24 -75.291,37.646 -81.343,41.697C-83.082,42.861 -83.884,44.121 -83.741,46.297C-83.357,52.096 -82.828,57.944 -83.562,63.716C-84.176,68.551 -82.855,72.224 -79.213,75.388C-77.827,76.593 -76.565,77.199 -74.75,77.184C-66.027,77.117 -57.303,77.154 -48.58,77.154M-21.419,26.29C-18.562,43.188 -16.388,59.855 -17.513,77.062C-6.292,77.28 4.809,76.865 15.885,77.75C15.671,78.12 15.445,78.331 15.218,78.333C5.279,78.407 -4.661,78.564 -14.598,78.451C-17.241,78.422 -18.098,79.22 -18.411,81.806C-19.221,88.494 -20.254,95.165 -23.019,101.414C-23.417,102.314 -23.907,103.291 -23.281,104.275C-23.132,104.343 -23.046,104.415 -22.961,104.416C-10.208,104.463 2.546,104.493 15.299,104.566C16.421,104.572 16.842,103.962 17.456,103.165C19.556,100.439 19.228,97.043 20.616,94.119C18.437,93.564 16.034,94.989 14.912,92.649C14.03,90.811 15.593,89.58 16.775,88.503C15.932,86.132 14.565,84.136 14.521,81.697C14.483,79.71 15.413,78.852 17.324,79.409C19,79.896 20.614,80.595 22.405,81.257C23.024,75.18 22.074,69.316 22.009,63.437C21.875,51.268 19.314,39.45 16.419,27.694C16.145,26.577 15.636,26.16 14.495,26.168C6.809,26.224 -0.877,26.226 -8.563,26.261C-10.329,26.268 -12.026,27.472 -13.808,26.773C-16.281,25.803 -18.772,26.277 -21.419,26.29M-24.32,-78.392C-25.174,-74.876 -27.363,-71.77 -27.674,-67.513L10.007,-67.513C8.912,-66.236 7.668,-66.513 6.501,-66.509C-4.188,-66.465 -14.878,-66.409 -25.566,-66.501C-27.656,-66.518 -28.455,-65.909 -28.881,-63.82C-30.52,-55.797 -31.238,-47.695 -31.497,-39.532C-31.548,-37.924 -31.501,-36.286 -32.281,-34.801C-33.042,-45.396 -31.474,-55.805 -29.61,-66.312L-44.382,-66.312C-42.512,-63.32 -40.708,-60.721 -39.205,-57.959C-36.573,-53.124 -36.024,-48.055 -39.123,-43.277C-41.917,-38.966 -44.985,-34.793 -49.396,-31.869C-51.744,-30.313 -52.958,-28.125 -52.72,-24.828C-51.004,-24.828 -49.345,-24.842 -47.687,-24.825C-44.218,-24.789 -40.749,-24.697 -37.28,-24.701C-33.964,-24.705 -30.422,-24.069 -27.377,-25.007C-20.47,-27.135 -13.865,-24.928 -7.136,-24.612C-7.074,-24.609 -7.026,-24.306 -6.978,-24.141C-8.053,-23.134 -9.699,-24.327 -10.981,-23.111C-8.188,-21.128 -6.498,-18.387 -5.011,-15.486C-3.79,-16.635 -4.358,-19.14 -2.25,-18.491C-0.387,-17.918 -1.039,-15.965 -1.209,-14.555C-1.468,-12.419 -1.7,-10.299 -1.589,-8.235C0.117,-7.084 3.146,-6.661 2.021,-3.994C0.896,-1.327 -0.394,-4.837 -1.933,-4.526C-2.836,-3.036 -2.703,-1.194 -3.176,0.477C-3.502,1.634 -3.812,2.832 -5.285,2.527C-6.698,2.235 -6.722,0.964 -6.564,-0.205C-6.327,-1.95 -6.035,-3.687 -5.753,-5.52C-7.855,-6.256 -9.807,-6.87 -11.7,-7.631C-12.658,-8.016 -13.656,-8.664 -13.264,-9.941C-12.855,-11.273 -11.74,-10.994 -10.684,-10.838C-9.24,-10.625 -7.819,-9.935 -6.331,-10.454C-5.096,-16.277 -10.676,-22.611 -14.593,-23.4C-19.151,-24.318 -24.07,-24.623 -28.725,-22.697C-30.469,-21.975 -30.864,-21.036 -30.597,-19.258C-29.694,-13.239 -28.71,-7.233 -28.527,-1.115C-28.451,1.408 -27.689,3.911 -27.167,6.821C-25.778,5.103 -24.767,3.775 -23.672,2.518C-21.994,0.591 -20.358,0.552 -18.414,2.382C-16.803,3.898 -15.852,5.834 -14.497,7.5C-10.723,12.139 -7.023,16.839 -3.232,21.593C0.103,21.341 0.11,21.335 2.436,24.402C2.792,24.874 3.156,25.288 3.775,25.29C7.752,25.301 11.729,25.296 15.813,25.296C15.416,21.791 14.604,18.735 13.732,15.668C11.893,9.191 9.44,2.88 8.655,-3.886C8.127,-8.441 7.456,-12.989 6.605,-17.494C4.634,-27.931 3.952,-38.26 7.824,-48.48C8.711,-50.821 9.238,-53.366 9.499,-55.863C10.141,-62.005 12.076,-67.74 14.475,-73.363C15.28,-75.25 16.071,-77.142 16.862,-79.018C15.695,-80.093 14.35,-79.92 13.066,-79.906C1.536,-79.779 -9.993,-79.624 -21.523,-79.508C-22.71,-79.496 -23.776,-79.409 -24.381,-78.206C-24.367,-79.953 -25.719,-79.494 -26.611,-79.461C-30.354,-79.323 -34.095,-78.874 -37.834,-78.907C-67.553,-79.171 -97.24,-77.522 -126.952,-77.462C-128.06,-77.459 -129.298,-77.72 -129.737,-76.237C-130.336,-74.212 -131.363,-72.3 -131.553,-69.833C-128.422,-70.219 -127.984,-68.138 -127.826,-65.951C-127.657,-63.617 -127.553,-61.269 -127.952,-58.941C-128.319,-56.804 -128.698,-54.643 -130.4,-53.095C-132.057,-51.589 -134.039,-52.438 -136.121,-52.773C-135.917,-44.281 -136.531,-36.045 -135.475,-27.83C-135.187,-25.593 -134.318,-24.696 -131.876,-24.77C-125.32,-24.968 -118.754,-24.83 -112.192,-24.876C-111.014,-24.884 -109.755,-24.528 -108.484,-25.439C-108.529,-26.278 -108.655,-27.204 -108.616,-28.123C-108.435,-32.309 -109.345,-36.64 -107.521,-40.623C-104.75,-46.677 -101.695,-52.624 -97.564,-57.864C-95.564,-60.4 -95.254,-63.24 -94.233,-66.683L-110.34,-66.683C-109.493,-67.355 -109.358,-67.555 -109.221,-67.557C-105.941,-67.601 -102.64,-67.874 -99.388,-67.584C-95.678,-67.254 -92.972,-67.949 -92.259,-72.099C-92.249,-72.154 -92.049,-72.176 -92.068,-72.17C-91.911,-70.704 -93.339,-69.475 -92.661,-67.905C-87.455,-67.239 -83.21,-67.437 -78.776,-69.034C-71.368,-71.704 -63.785,-73.05 -55.906,-72.77C-54.369,-72.716 -52.822,-72.667 -51.667,-71.605C-47.712,-67.969 -43.014,-67.167 -37.88,-67.644C-36.021,-67.817 -34.121,-67.809 -32.261,-67.644C-30.051,-67.448 -28.869,-68.082 -28.316,-70.433C-27.631,-73.344 -26.34,-76.085 -24.32,-78.392M17.237,81.996C18.296,84.734 18.257,87.424 21.555,87.709C22.401,87.781 22.977,88.358 22.823,89.245C22.611,90.465 21.636,90.809 20.485,90.822C23.632,91.357 24.39,92.33 23.237,95.134C21.869,98.459 22.036,102.223 19.547,105.32C18.347,106.811 17.436,107.361 15.781,107.362C0.492,107.365 -14.797,107.392 -30.086,107.388C-59.726,107.381 -89.367,107.358 -119.007,107.342C-121.819,107.341 -124.617,107.191 -127.422,106.912C-129.398,106.715 -129.558,105.866 -129.056,104.311C-128.219,101.725 -127.266,99.164 -126.642,96.525C-124.337,86.78 -122.571,77.021 -122.5,66.882C-122.341,44.218 -125.66,22.152 -131.161,0.199C-133.613,-9.586 -137.168,-19.161 -138.348,-29.234C-139.287,-37.245 -139.019,-45.338 -138.81,-53.397C-138.73,-56.469 -137.557,-57.152 -134.906,-55.717C-132.616,-54.478 -131.68,-55.337 -131.061,-57.483C-130.183,-60.519 -130.578,-63.554 -130.581,-66.458C-131.61,-66.968 -132.118,-66.398 -132.712,-66.201C-134.421,-65.633 -135.082,-66.533 -134.88,-68.031C-134.338,-72.059 -132.676,-75.762 -131.278,-79.534C-131.018,-80.236 -130.351,-80.886 -129.543,-80.78C-119.567,-79.464 -109.571,-80.374 -99.604,-80.678C-82.26,-81.208 -64.918,-81.492 -47.568,-81.648C-28.069,-81.823 -8.573,-82.321 10.924,-82.692C13.183,-82.735 15.407,-82.506 17.646,-82.237C20.033,-81.951 20.446,-80.779 19.636,-78.765C18.236,-75.287 16.854,-71.801 15.461,-68.321C13.884,-64.38 12.972,-60.283 12.424,-56.079C12.038,-53.108 11.562,-50.116 10.474,-47.313C6.984,-38.32 7.494,-29.149 9.061,-19.911C9.797,-15.57 10.748,-11.254 11.243,-6.886C11.827,-1.733 13.009,3.234 14.515,8.187C18.8,22.278 21.967,36.656 23.955,51.229C25.321,61.247 25.628,71.406 25.019,81.534C24.818,84.879 24.504,84.925 21.682,83.378C21.356,83.199 20.993,83.077 20.635,82.97C19.744,82.7 18.846,82.454 17.237,81.996" style="fill-rule:nonzero;"/>
        </g>
        <g transform="matrix(3.1689,0,0,2.74579,473.573,179.663)">
            <path d="M0,-4.971C1.541,-2.955 1.461,-1.573 -0.525,0C-1.364,-1.888 -1.307,-3.257 0,-4.971" style="fill-rule:nonzero;"/>
        </g>
        <g transform="matrix(3.1689,0,0,2.74579,291.226,461.694)">
            <path d="M0,-5.229C1.927,0.214 2.549,0.957 7.794,-2.16C5.22,-3.359 3.438,-5.856 0,-5.229M15.772,0.833C19.255,0.486 22.379,-1.295 25.467,0.405C25.492,0.697 25.517,0.99 25.542,1.283C22.024,1.844 18.512,2.446 14.984,2.932C14.29,3.028 13.28,2.819 13.191,1.92C12.898,-1.066 10.863,-0.141 9.253,0.161C7.158,0.554 5.264,1.782 3.004,1.604C1.591,1.493 0.419,1.269 -0.818,0.287C-2.697,-1.207 -4.848,-0.021 -6.824,0.625C-7.591,0.875 -8.018,1.849 -8.991,1.758C-9.432,-0.595 -9.432,-0.595 -2.009,-2.713C-1.775,-4.253 -4.001,-6.072 -2.368,-7.093C-0.507,-8.257 1.979,-7.918 4.099,-6.975C5.114,-6.524 6.083,-5.88 6.926,-5.155C8.851,-3.5 10.519,-1.583 13.469,-1.688C14.716,-1.732 15.476,-0.489 15.772,0.833" style="fill-rule:nonzero;"/>
        </g>
        <g transform="matrix(3.1689,0,0,2.74579,271.365,471.759)">
            <path d="M0,3.95C-0.795,2.48 0.264,1.961 1.071,1.398C2.379,0.487 3.949,0.313 5.401,0.613C8.797,1.315 11.995,2.096 15.438,0.235C17.332,-0.787 18.471,0.192 19.076,2.106C14.473,2.639 9.979,4.737 5.208,2.595C3.411,1.787 1.784,3.638 0,3.95" style="fill-rule:nonzero;"/>
        </g>
        <g transform="matrix(3.1689,0,0,2.74579,107.145,128.126)">
            <path d="M0,-1.317L9.478,-1.317C8.099,-0.185 3.553,0 0,-1.317" style="fill-rule:nonzero;"/>
        </g>
        <g transform="matrix(3.1689,0,0,2.74579,265.308,196.342)">
            <path d="M0,-2.974C2.929,-2.003 4.985,-2.119 6.999,-3.277C4.926,-3.567 2.848,-4.018 0,-2.974M-7.954,10.077L4.581,10.077C1.442,6.411 -4.316,6.412 -7.954,10.077M-4.357,-1.542C-6.747,-0.558 -9.213,-0.191 -11.746,-0.391C-12.605,-0.458 -13.519,-0.536 -13.76,-1.55C-13.958,-2.383 -13.382,-2.962 -12.755,-3.411C-11.092,-4.601 -9.559,-6.054 -7.296,-6.145C-7.667,-7.359 -8.789,-7.588 -9.599,-8.146C-10.436,-8.723 -11.06,-9.349 -10.806,-10.439C-10.566,-11.468 -9.786,-12.05 -8.833,-12.217C-6.46,-12.635 -4.145,-12.724 -2.48,-10.445C-2.114,-9.944 -1.814,-9.287 -0.836,-9.126C-0.132,-11.081 0.702,-13.059 2.447,-14.416C3.181,-14.988 3.938,-15.665 4.967,-15.145C5.903,-14.671 5.695,-13.729 5.757,-12.908C5.964,-10.183 4.475,-8.126 2.611,-5.783C4.583,-5.681 6.131,-5.662 7.665,-5.503C8.925,-5.372 10.54,-5.489 10.733,-3.729C10.919,-2.038 9.329,-1.729 8.198,-1.148C5.938,0.012 3.438,-0.374 1.068,-0.134C-0.152,3.62 0.042,4.097 3.367,5.843C5.054,6.73 6.348,8.097 7.625,9.464C8.215,10.096 8.628,10.897 8.232,11.775C7.879,12.557 7.093,12.669 6.314,12.669C0.881,12.667 -4.552,12.691 -9.984,12.645C-11.926,12.629 -12.178,11.569 -11.335,10.031C-10.508,8.522 -9.408,7.296 -7.874,6.447C-3.833,4.213 -3.646,3.771 -4.357,-1.542" style="fill-rule:nonzero;"/>
        </g>
    </g>
    <g transform="matrix(3.1689,0,0,2.74579,461.587,551.484)">
        <path d="M0,-0.403L15.886,-0.403C15.889,-0.268 15.891,-0.133 15.894,0L0.006,0C0.004,-0.133 0.002,-0.268 0,-0.403" style="fill-rule:nonzero;"/>
    </g>
    <g transform="matrix(0.298857,0,0,0.298857,217.227,204.664)">
        <g transform="matrix(2.83124,0,0,2.83124,254.631,-572.952)">
            <path d="M334.772,339.543C325.694,344.275 278.666,363.611 268.654,368.83C258.642,374.051 253.08,374 245.17,370.219C237.261,366.438 187.215,346.223 178.2,341.914C173.694,339.76 171.325,337.943 171.325,336.226L171.325,319.03C171.325,319.03 236.478,304.846 246.998,301.073C257.516,297.299 261.165,297.163 270.116,300.442C279.068,303.721 332.59,313.378 341.437,316.618C341.437,316.618 341.433,331.976 341.433,333.57C341.434,335.27 339.393,337.135 334.772,339.543Z" style="fill:rgb(164,30,17);fill-rule:nonzero;"/>
        </g>
        <g transform="matrix(2.83124,0,0,2.83124,254.631,-572.952)">
            <path d="M334.772,322.342C325.694,327.073 278.666,346.411 268.654,351.63C258.642,356.851 253.08,356.8 245.17,353.019C237.26,349.24 187.215,329.021 178.2,324.713C169.185,320.404 168.996,317.438 177.852,313.971C186.707,310.502 236.478,290.975 246.999,287.201C257.517,283.429 261.166,283.291 270.117,286.571C279.069,289.85 325.816,308.457 334.662,311.697C343.51,314.94 343.85,317.61 334.772,322.342Z" style="fill:rgb(216,44,32);fill-rule:nonzero;"/>
        </g>
        <g transform="matrix(2.83124,0,0,2.83124,254.631,-572.952)">
            <path d="M334.772,311.502C325.694,316.234 278.666,335.571 268.654,340.792C258.642,346.011 253.08,345.96 245.17,342.179C237.26,338.4 187.215,318.182 178.2,313.873C173.694,311.719 171.325,309.904 171.325,308.187L171.325,290.99C171.325,290.99 236.478,276.807 246.998,273.033C257.516,269.26 261.165,269.123 270.116,272.402C279.068,275.681 332.59,285.336 341.437,288.577C341.437,288.577 341.433,303.934 341.433,305.53C341.434,307.229 339.393,309.094 334.772,311.502Z" style="fill:rgb(164,30,17);fill-rule:nonzero;"/>
        </g>
        <g transform="matrix(2.83124,0,0,2.83124,254.631,-572.952)">
            <path d="M334.772,294.302C325.694,299.034 278.666,318.37 268.654,323.591C258.642,328.811 253.08,328.76 245.17,324.978C237.26,321.199 187.215,300.981 178.2,296.673C169.185,292.365 168.996,289.399 177.852,285.93C186.707,282.463 236.478,262.935 246.999,259.162C257.517,255.389 261.166,255.252 270.117,258.531C279.069,261.81 325.816,280.416 334.662,283.657C343.51,286.899 343.85,289.57 334.772,294.302Z" style="fill:rgb(216,44,32);fill-rule:nonzero;"/>
        </g>
        <g transform="matrix(2.83124,0,0,2.83124,254.631,-572.952)">
            <path d="M334.772,282.422C325.694,287.154 278.666,306.491 268.654,311.712C258.642,316.931 253.08,316.88 245.17,313.099C237.26,309.32 187.215,289.102 178.2,284.794C173.694,282.64 171.325,280.824 171.325,279.108L171.325,261.911C171.325,261.911 236.478,247.728 246.998,243.955C257.516,240.181 261.165,240.045 270.116,243.324C279.068,246.603 332.59,256.258 341.437,259.499C341.437,259.499 341.433,274.856 341.433,276.451C341.434,278.149 339.393,280.014 334.772,282.422Z" style="fill:rgb(164,30,17);fill-rule:nonzero;"/>
        </g>
        <g transform="matrix(2.83124,0,0,2.83124,254.631,-572.952)">
            <path d="M334.772,265.222C325.694,269.954 278.666,289.291 268.654,294.511C258.642,299.73 253.08,299.679 245.17,295.899C237.261,292.119 187.215,271.902 178.2,267.594C169.185,263.286 168.996,260.319 177.852,256.851C186.707,253.383 236.478,233.857 246.999,230.083C257.517,226.309 261.166,226.173 270.117,229.453C279.069,232.732 325.816,251.338 334.662,254.579C343.51,257.819 343.85,260.491 334.772,265.222Z" style="fill:rgb(216,44,32);fill-rule:nonzero;"/>
        </g>
        <g transform="matrix(2.83124,0,0,2.83124,254.631,-572.952)">
            <path d="M278.672,248.662L263.932,250.192L260.632,258.132L255.302,249.272L238.281,247.742L250.982,243.162L247.172,236.132L259.062,240.782L270.272,237.112L267.242,244.382L278.672,248.662Z" style="fill:white;fill-rule:nonzero;"/>
        </g>
        <g transform="matrix(2.83124,0,0,2.83124,254.631,-572.952)">
            <path d="M259.752,287.182L232.241,275.772L271.662,269.722L259.752,287.182Z" style="fill:white;fill-rule:nonzero;"/>
        </g>
        <g transform="matrix(2.83124,0,0,2.83124,254.631,-572.952)">
            <ellipse cx="221.611" cy="261.242" rx="21.069" ry="8.167" style="fill:white;"/>
        </g>
        <g transform="matrix(2.83124,0,0,2.83124,254.631,-572.952)">
            <path d="M296.092,250.832L319.422,260.052L296.112,269.262L296.092,250.832Z" style="fill:rgb(122,12,0);fill-rule:nonzero;"/>
        </g>
        <g transform="matrix(2.83124,0,0,2.83124,254.631,-572.952)">
            <path d="M270.282,261.042L296.092,250.832L296.112,269.262L293.582,270.252L270.282,261.042Z" style="fill:rgb(173,33,21);fill-rule:nonzero;"/>
        </g>
    </g>
    <g transform="matrix(0.926461,0,0,0.926461,-121.397,173.384)">
        <text x="809.085px" y="84.595px" style="font-family:'Caribbean-Regular', 'Caribbean';font-size:150px;fill:rgb(173,33,21);">r</text>
        <text x="919.485px" y="84.595px" style="font-family:'Caribbean-Regular', 'Caribbean';font-size:120px;">e<tspan x="1007.21px 1091.09px 1138.96px " y="84.595px 84.595px 84.595px ">dis</tspan></text>
        <text x="809.085px" y="247.045px" style="font-family:'Caribbean-Regular', 'Caribbean';font-size:150px;fill:rgb(173,33,21);">s</text>
        <text x="899.985px" y="247.045px" style="font-family:'Caribbean-Regular', 'Caribbean';font-size:120px;">e<tspan x="987.705px 1072.55px 1157.87px 1246.18px 1294.07px 1377.46px " y="247.045px 247.045px 247.045px 247.045px 247.045px 247.045px ">curity</tspan></text>
        <text x="809.085px" y="420.325px" style="font-family:'Caribbean-Regular', 'Caribbean';font-size:160px;fill:rgb(173,33,21);">m</text>
        <text x="919.805px" y="420.325px" style="font-family:'Caribbean-Regular', 'Caribbean';font-size:120px;">a<tspan x="1010.64px " y="420.325px ">p</tspan></text>
    </g>
</svg>
